#tb 0: 1/25
0,          0,          0,        1,   599040, 0x866449d5
0,          1,          1,        1,   599040, 0x6a8919f0
0,          2,          2,        1,   599040, 0x5bec3742
0,          3,          3,        1,   599040, 0x0e66f78b
0,          4,          4,        1,   599040, 0x798e543b
0,          5,          5,        1,   599040, 0x342467e0
0,          6,          6,        1,   599040, 0x2cb393e1
0,          7,          7,        1,   599040, 0x2f326539
0,          8,          8,        1,   599040, 0x8ac6eb6a
0,          9,          9,        1,   599040, 0x810a887b
0,         10,         10,        1,   599040, 0x4feb2d60
0,         11,         11,        1,   599040, 0xd32165ff
0,         12,         12,        1,   599040, 0x46e505e1
0,         13,         13,        1,   599040, 0x2d917014
0,         14,         14,        1,   599040, 0xb504f112
0,         15,         15,        1,   599040, 0x0fca37ce
0,         16,         16,        1,   599040, 0x2d5a269d
0,         17,         17,        1,   599040, 0x3928ef6d
0,         18,         18,        1,   599040, 0x94397312
0,         19,         19,        1,   599040, 0xc1c1257b
0,         20,         20,        1,   599040, 0x4e23adcc
0,         21,         21,        1,   599040, 0x3eaef1e0
0,         22,         22,        1,   599040, 0x5e66fa14
0,         23,         23,        1,   599040, 0x2adfa0c2
0,         24,         24,        1,   599040, 0xf888db90
0,         25,         25,        1,   599040, 0xab3a6418
0,         26,         26,        1,   599040, 0x7689d0a2
0,         27,         27,        1,   599040, 0x2f5746bf
0,         28,         28,        1,   599040, 0xad2cf3da
0,         29,         29,        1,   599040, 0x32f2854e
0,         30,         30,        1,   599040, 0xb73cf7db
0,         31,         31,        1,   599040, 0xbe996991
0,         32,         32,        1,   599040, 0xe66501c8
0,         33,         33,        1,   599040, 0x12d1bc13
0,         34,         34,        1,   599040, 0x06e103d5
0,         35,         35,        1,   599040, 0x49af0680
0,         36,         36,        1,   599040, 0xdbf128b0
0,         37,         37,        1,   599040, 0xa1ac770d
0,         38,         38,        1,   599040, 0x99156429
0,         39,         39,        1,   599040, 0x8ce1a9a7
0,         40,         40,        1,   599040, 0x14067700
0,         41,         41,        1,   599040, 0xcdedccee
0,         42,         42,        1,   599040, 0x09c12765
0,         43,         43,        1,   599040, 0x7979a1be
0,         44,         44,        1,   599040, 0xbd3148d1
0,         45,         45,        1,   599040, 0xc83f9aac
0,         46,         46,        1,   599040, 0x91acbae4
0,         47,         47,        1,   599040, 0xd230907a
0,         48,         48,        1,   599040, 0x3f6c31f6
0,         49,         49,        1,   599040, 0x84496e55
